<?xml version="1.0" encoding="utf-8"?>
<!-- Svg Vector Icons : http://www.onlinewebfonts.com/icon -->
<!DOCTYPE svg PUBLIC "-//W3C//DTD SVG 1.1//EN" "http://www.w3.org/Graphics/SVG/1.1/DTD/svg11.dtd">
<svg fill="#FCE22A" version="1.1" xmlns="http://www.w3.org/2000/svg" xmlns:xlink="http://www.w3.org/1999/xlink" x="0px" y="0px" viewBox="0 0 1000 1000" enable-background="new 0 0 1000 1000" xml:space="preserve">
<metadata> Svg Vector Icons : http://www.onlinewebfonts.com/icon </metadata>
<g><path d="M899.9,804.5l-219.4-327c-28-44.4-41.6-97.1-41.6-153.6c0,0,0-160.8,0-203.4c0-42.7,27.5-72.7,32.8-92.1c5-18.4,1.1-18.4-33.2-18.4H361.2c-35,0-40.6,0-35.7,18.4c5.3,19.9,33.4,51.2,33.4,93.2c0,42,0,202.3,0,202.3c0,56.4-15.9,108.9-43.9,153.6L207.2,644.8L99.8,804.3C87.1,824,80,849.6,80,874.7C80,936,115.7,990,218.3,990h563.5C884.6,990,920,936,920,874.7C919.8,849.6,912.6,824.2,899.9,804.5z M835.2,903.6c-9.6,9.2-25.4,16.4-53.6,16.4H218.1c-28,0-45.5-7.7-55.1-16.8c-5.9-5.7-13.1-15.4-13.1-29.2c0-10.9,3.1-22.1,8.5-30.9l216.6-329c34.3-55.1,53.9-120.8,53.9-190.2V80h140v243.7c0,68.2,17,134.1,52.2,190.3L841,842.1c5.5,8.7,8.7,20.2,8.7,31.2C849.7,887.3,841.1,897.9,835.2,903.6z"/><path d="M791.4,838.6c0.1,0.2,0.2,0.9,0,0.5L612.3,570H385.6L208.3,839.4c-3.3,4.6-5,11.3-5,17.4c0,16.4,13.8,30.4,29.9,30.4h533.8c16.4,0,29.7-14.7,29.7-30.9C796.7,850.8,794.3,843,791.4,838.6z M600.7,686.4c-3.3-3.3-5-7.9-5-12.5c0-4.6,2-9.2,5-12.5c3.3-3.3,7.9-5,12.3-5c4.6,0,9.2,1.8,12.3,5c3.3,3.3,5,7.9,5,12.5c0,4.6-2,9.2-5,12.5c-3.3,3.3-7.7,5-12.3,5C608.5,691.4,604,689.4,600.7,686.4z M703.3,815.4c-3.1,2-6.3,2.8-9.4,2.8c-5.5,0-11.2-2.8-14.4-7.9L628,731.9c-5.3-8.1-3.1-19,5-24.3c3.1-2,6.3-2.8,9.6-2.8c5.7,0,11.2,2.8,14.2,7.9l51.4,78.5C713.5,799.2,711.4,810.2,703.3,815.4z"/></g>
</svg>